<svg width="70" height="69" viewBox="0 0 70 69" fill="none" xmlns="http://www.w3.org/2000/svg">
<path d="M11.6663 57.5C10.0622 57.5 8.6894 56.9375 7.54801 55.8124C6.40662 54.6873 5.83495 53.3332 5.83301 51.75V17.25C5.83301 15.6688 6.40467 14.3156 7.54801 13.1905C8.69134 12.0654 10.0641 11.5019 11.6663 11.5H58.333C59.9372 11.5 61.3109 12.0635 62.4543 13.1905C63.5976 14.3175 64.1683 15.6707 64.1663 17.25V51.75C64.1663 53.3313 63.5956 54.6854 62.4543 55.8124C61.3129 56.9394 59.9391 57.5019 58.333 57.5H11.6663ZM34.9997 37.375L11.6663 23V51.75H58.333V23L34.9997 37.375ZM34.9997 31.625L58.333 17.25H11.6663L34.9997 31.625ZM11.6663 23V17.25V51.75V23Z" fill="black"/>
</svg>
