<svg width="20" height="20" viewBox="0 0 20 20" fill="none" xmlns="http://www.w3.org/2000/svg">
<path d="M12.7917 4.62477C12.1584 4.62466 11.5503 4.8732 11.0983 5.31691C10.6464 5.76061 10.3867 6.36402 10.3751 6.99727L10.3517 8.30977C10.3504 8.38024 10.3341 8.44962 10.3041 8.51337C10.274 8.57712 10.2308 8.63379 10.1773 8.67967C10.1238 8.72555 10.0612 8.75959 9.99358 8.77957C9.92598 8.79955 9.85493 8.80501 9.78508 8.7956L8.48341 8.61894C6.77258 8.3856 5.13258 7.59727 3.55841 6.28644C3.06091 9.04477 4.03341 10.9556 6.37758 12.4298L7.83341 13.3448C7.90263 13.3882 7.96017 13.4479 8.00098 13.5187C8.04178 13.5894 8.06463 13.6691 8.06751 13.7508C8.07038 13.8324 8.05321 13.9135 8.01748 13.987C7.98176 14.0605 7.92857 14.1241 7.86258 14.1723L6.53591 15.1414C7.32508 15.1906 8.07425 15.1556 8.69591 15.0323C12.6276 14.2473 15.2417 11.2889 15.2417 6.40894C15.2417 6.0106 14.3976 4.62477 12.7917 4.62477ZM8.70841 6.96644C8.72296 6.16315 8.97415 5.38199 9.43054 4.72079C9.88694 4.05958 10.5282 3.5477 11.2742 3.24924C12.0201 2.95078 12.8375 2.879 13.624 3.04289C14.4106 3.20678 15.1313 3.59906 15.6959 4.1706C16.2884 4.16644 16.7926 4.31644 17.9192 3.6331C17.6409 4.99977 17.5026 5.5931 16.9084 6.40894C16.9084 12.7773 12.9942 15.8739 9.02175 16.6664C6.29925 17.2098 2.33841 16.3173 1.20508 15.1323C1.78258 15.0873 4.13258 14.8348 5.49091 13.8406C4.34091 13.0823 -0.232422 10.3906 2.77341 3.15477C4.18424 4.80227 5.61508 5.92394 7.06508 6.51894C8.02924 6.91477 8.26675 6.90727 8.70925 6.96727" fill="black"/>
</svg>
