<svg width="38" height="35" viewBox="0 0 38 35" fill="none" xmlns="http://www.w3.org/2000/svg">
<path d="M7.125 32.8125H30.875V27.3438C30.8725 25.3139 29.9959 23.3678 28.4375 21.9325C26.8792 20.4972 24.7663 19.6898 22.5625 19.6875H15.4375C13.2337 19.6898 11.1208 20.4972 9.56245 21.9325C8.0041 23.3678 7.12751 25.3139 7.125 27.3438V32.8125ZM10.6875 9.84375C10.6875 11.358 11.175 12.8383 12.0884 14.0973C13.0018 15.3564 14.3 16.3377 15.8189 16.9172C17.3379 17.4967 19.0092 17.6483 20.6217 17.3529C22.2342 17.0575 23.7153 16.3283 24.8778 15.2575C26.0403 14.1868 26.832 12.8226 27.1528 11.3374C27.4735 9.85224 27.3089 8.31283 26.6797 6.91383C26.0506 5.51483 24.9852 4.31909 23.6182 3.47781C22.2512 2.63653 20.6441 2.1875 19 2.1875C16.7954 2.1875 14.6811 2.99414 13.1222 4.42996C11.5633 5.86579 10.6875 7.81319 10.6875 9.84375Z" fill="black"/>
</svg>
